<svg width="343" height="63" viewBox="0 0 343 63" fill="none" xmlns="http://www.w3.org/2000/svg">
<path d="M80.7447 10.5455V28H77.0544V10.5455H80.7447ZM111.1 10.5455V28H107.913L100.319 17.0142H100.191V28H96.5009V10.5455H99.7396L107.274 21.5227H107.427V10.5455H111.1ZM141.469 10.5455V28H138.281L130.688 17.0142H130.56V28H126.869V10.5455H130.108L137.642 21.5227H137.796V10.5455H141.469ZM173.278 19.2727C173.278 21.1761 172.917 22.7955 172.195 24.1307C171.479 25.4659 170.502 26.4858 169.263 27.1903C168.03 27.8892 166.644 28.2386 165.104 28.2386C163.553 28.2386 162.161 27.8864 160.928 27.1818C159.695 26.4773 158.721 25.4574 158.005 24.1222C157.289 22.7869 156.931 21.1705 156.931 19.2727C156.931 17.3693 157.289 15.75 158.005 14.4148C158.721 13.0795 159.695 12.0625 160.928 11.3636C162.161 10.6591 163.553 10.3068 165.104 10.3068C166.644 10.3068 168.03 10.6591 169.263 11.3636C170.502 12.0625 171.479 13.0795 172.195 14.4148C172.917 15.75 173.278 17.3693 173.278 19.2727ZM169.536 19.2727C169.536 18.0398 169.351 17 168.982 16.1534C168.619 15.3068 168.104 14.6648 167.44 14.2273C166.775 13.7898 165.996 13.571 165.104 13.571C164.212 13.571 163.434 13.7898 162.769 14.2273C162.104 14.6648 161.587 15.3068 161.218 16.1534C160.854 17 160.672 18.0398 160.672 19.2727C160.672 20.5057 160.854 21.5455 161.218 22.392C161.587 23.2386 162.104 23.8807 162.769 24.3182C163.434 24.7557 164.212 24.9744 165.104 24.9744C165.996 24.9744 166.775 24.7557 167.44 24.3182C168.104 23.8807 168.619 23.2386 168.982 22.392C169.351 21.5455 169.536 20.5057 169.536 19.2727ZM190.9 10.5455L195.119 23.8068H195.281L199.508 10.5455H203.599L197.582 28H192.826L186.801 10.5455H190.9ZM219.108 28H215.154L221.179 10.5455H225.935L231.952 28H227.997L223.625 14.5341H223.489L219.108 28ZM218.861 21.1392H228.202V24.0199H218.861V21.1392ZM243.975 13.5881V10.5455H258.31V13.5881H252.967V28H249.319V13.5881H243.975ZM277.082 10.5455V28H273.391V10.5455H277.082ZM308.878 19.2727C308.878 21.1761 308.517 22.7955 307.795 24.1307C307.079 25.4659 306.102 26.4858 304.863 27.1903C303.63 27.8892 302.244 28.2386 300.704 28.2386C299.153 28.2386 297.761 27.8864 296.528 27.1818C295.295 26.4773 294.321 25.4574 293.605 24.1222C292.889 22.7869 292.531 21.1705 292.531 19.2727C292.531 17.3693 292.889 15.75 293.605 14.4148C294.321 13.0795 295.295 12.0625 296.528 11.3636C297.761 10.6591 299.153 10.3068 300.704 10.3068C302.244 10.3068 303.63 10.6591 304.863 11.3636C306.102 12.0625 307.079 13.0795 307.795 14.4148C308.517 15.75 308.878 17.3693 308.878 19.2727ZM305.136 19.2727C305.136 18.0398 304.951 17 304.582 16.1534C304.219 15.3068 303.704 14.6648 303.04 14.2273C302.375 13.7898 301.596 13.571 300.704 13.571C299.812 13.571 299.034 13.7898 298.369 14.2273C297.704 14.6648 297.187 15.3068 296.818 16.1534C296.454 17 296.272 18.0398 296.272 19.2727C296.272 20.5057 296.454 21.5455 296.818 22.392C297.187 23.2386 297.704 23.8807 298.369 24.3182C299.034 24.7557 299.812 24.9744 300.704 24.9744C301.596 24.9744 302.375 24.7557 303.04 24.3182C303.704 23.8807 304.219 23.2386 304.582 22.392C304.951 21.5455 305.136 20.5057 305.136 19.2727ZM338.931 10.5455V28H335.743L328.149 17.0142H328.022V28H324.331V10.5455H327.57L335.104 21.5227H335.257V10.5455H338.931ZM75.3536 57V39.5455H81.4559C82.6718 39.5455 83.6747 39.7557 84.4644 40.1761C85.2542 40.5909 85.8423 41.1506 86.2286 41.8551C86.615 42.554 86.8082 43.3295 86.8082 44.1818C86.8082 44.9318 86.6747 45.5511 86.4076 46.0398C86.1463 46.5284 85.7997 46.9148 85.3678 47.1989C84.9417 47.483 84.4786 47.6932 83.9786 47.8295V48C84.5127 48.0341 85.0497 48.2216 85.5894 48.5625C86.1292 48.9034 86.5809 49.392 86.9446 50.0284C87.3082 50.6648 87.49 51.4432 87.49 52.3636C87.49 53.2386 87.2911 54.0256 86.8934 54.7244C86.4957 55.4233 85.8678 55.9773 85.0099 56.3864C84.1519 56.7955 83.0355 57 81.6605 57H75.3536ZM77.4673 55.125H81.6605C83.0411 55.125 84.0213 54.858 84.6008 54.3239C85.186 53.7841 85.4786 53.1307 85.4786 52.3636C85.4786 51.7727 85.3281 51.2273 85.0269 50.7273C84.7258 50.2216 84.2968 49.8182 83.74 49.517C83.1832 49.2102 82.5241 49.0568 81.7627 49.0568H77.4673V55.125ZM77.4673 47.2159H81.3877C82.0241 47.2159 82.598 47.0909 83.1093 46.8409C83.6264 46.5909 84.0355 46.2386 84.3366 45.7841C84.6434 45.3295 84.7968 44.7955 84.7968 44.1818C84.7968 43.4148 84.5298 42.7642 83.9957 42.2301C83.4616 41.6903 82.615 41.4205 81.4559 41.4205H77.4673V47.2159ZM107.458 39.5455H109.571V51.1023C109.571 52.2955 109.29 53.3608 108.727 54.2983C108.171 55.2301 107.384 55.9659 106.367 56.5057C105.35 57.0398 104.156 57.3068 102.787 57.3068C101.418 57.3068 100.225 57.0398 99.2076 56.5057C98.1905 55.9659 97.4007 55.2301 96.8382 54.2983C96.2814 53.3608 96.003 52.2955 96.003 51.1023V39.5455H98.1167V50.9318C98.1167 51.7841 98.3042 52.5426 98.6792 53.2074C99.0542 53.8665 99.5882 54.3864 100.281 54.767C100.98 55.142 101.816 55.3295 102.787 55.3295C103.759 55.3295 104.594 55.142 105.293 54.767C105.992 54.3864 106.526 53.8665 106.895 53.2074C107.27 52.5426 107.458 51.7841 107.458 50.9318V39.5455ZM120.946 39.5455V57H118.832V39.5455H120.946ZM130.224 57V39.5455H132.337V55.125H140.451V57H130.224ZM154.15 57H148.764V39.5455H154.389C156.082 39.5455 157.531 39.8949 158.735 40.5938C159.94 41.2869 160.863 42.2841 161.505 43.5852C162.147 44.8807 162.468 46.4318 162.468 48.2386C162.468 50.0568 162.144 51.6222 161.497 52.9347C160.849 54.2415 159.906 55.2472 158.667 55.9517C157.428 56.6506 155.923 57 154.15 57ZM150.877 55.125H154.014C155.457 55.125 156.653 54.8466 157.602 54.2898C158.551 53.733 159.258 52.9403 159.724 51.9119C160.19 50.8835 160.423 49.6591 160.423 48.2386C160.423 46.8295 160.193 45.6165 159.732 44.5994C159.272 43.5767 158.585 42.7926 157.67 42.2472C156.755 41.696 155.616 41.4205 154.252 41.4205H150.877V55.125ZM173.167 39.5455V57H171.054V39.5455H173.167ZM196.286 39.5455V57H194.241L184.729 43.2955H184.559V57H182.445V39.5455H184.491L194.036 53.2841H194.207V39.5455H196.286ZM217.487 45C217.3 44.4261 217.053 43.9119 216.746 43.4574C216.445 42.9972 216.084 42.6051 215.663 42.2812C215.249 41.9574 214.777 41.7102 214.249 41.5398C213.72 41.3693 213.141 41.2841 212.51 41.2841C211.476 41.2841 210.536 41.5511 209.689 42.0852C208.842 42.6193 208.169 43.4062 207.669 44.446C207.169 45.4858 206.919 46.7614 206.919 48.2727C206.919 49.7841 207.172 51.0597 207.678 52.0994C208.183 53.1392 208.868 53.9261 209.732 54.4602C210.595 54.9943 211.567 55.2614 212.646 55.2614C213.646 55.2614 214.527 55.0483 215.288 54.6222C216.056 54.1903 216.652 53.5824 217.078 52.7983C217.51 52.0085 217.726 51.0795 217.726 50.0114L218.374 50.1477H213.124V48.2727H219.771V50.1477C219.771 51.5852 219.465 52.8352 218.851 53.8977C218.243 54.9602 217.402 55.7841 216.328 56.3693C215.26 56.9489 214.033 57.2386 212.646 57.2386C211.101 57.2386 209.743 56.875 208.573 56.1477C207.408 55.4205 206.499 54.3864 205.845 53.0455C205.198 51.7045 204.874 50.1136 204.874 48.2727C204.874 46.892 205.058 45.6506 205.428 44.5483C205.803 43.4403 206.331 42.4972 207.013 41.7188C207.695 40.9403 208.502 40.3438 209.433 39.929C210.365 39.5142 211.391 39.3068 212.51 39.3068C213.431 39.3068 214.288 39.446 215.084 39.7244C215.885 39.9972 216.598 40.3864 217.223 40.892C217.854 41.392 218.379 41.9915 218.8 42.6903C219.22 43.3835 219.51 44.1534 219.669 45H217.487ZM252.153 45C251.966 44.4261 251.719 43.9119 251.412 43.4574C251.111 42.9972 250.75 42.6051 250.329 42.2812C249.915 41.9574 249.443 41.7102 248.915 41.5398C248.386 41.3693 247.807 41.2841 247.176 41.2841C246.142 41.2841 245.202 41.5511 244.355 42.0852C243.508 42.6193 242.835 43.4062 242.335 44.446C241.835 45.4858 241.585 46.7614 241.585 48.2727C241.585 49.7841 241.838 51.0597 242.344 52.0994C242.849 53.1392 243.534 53.9261 244.398 54.4602C245.261 54.9943 246.233 55.2614 247.312 55.2614C248.312 55.2614 249.193 55.0483 249.954 54.6222C250.721 54.1903 251.318 53.5824 251.744 52.7983C252.176 52.0085 252.392 51.0795 252.392 50.0114L253.04 50.1477H247.79V48.2727H254.437V50.1477C254.437 51.5852 254.131 52.8352 253.517 53.8977C252.909 54.9602 252.068 55.7841 250.994 56.3693C249.926 56.9489 248.699 57.2386 247.312 57.2386C245.767 57.2386 244.409 56.875 243.239 56.1477C242.074 55.4205 241.165 54.3864 240.511 53.0455C239.864 51.7045 239.54 50.1136 239.54 48.2727C239.54 46.892 239.724 45.6506 240.094 44.5483C240.469 43.4403 240.997 42.4972 241.679 41.7188C242.361 40.9403 243.167 40.3438 244.099 39.929C245.031 39.5142 246.057 39.3068 247.176 39.3068C248.096 39.3068 248.954 39.446 249.75 39.7244C250.551 39.9972 251.264 40.3864 251.889 40.892C252.52 41.392 253.045 41.9915 253.466 42.6903C253.886 43.3835 254.176 44.1534 254.335 45H252.153ZM263.097 57V39.5455H268.995C270.359 39.5455 271.478 39.7784 272.353 40.2443C273.228 40.7045 273.876 41.3381 274.296 42.1449C274.717 42.9517 274.927 43.8693 274.927 44.8977C274.927 45.9261 274.717 46.8381 274.296 47.6335C273.876 48.429 273.231 49.054 272.362 49.5085C271.492 49.9574 270.381 50.1818 269.029 50.1818H264.256V48.2727H268.961C269.893 48.2727 270.643 48.1364 271.211 47.8636C271.785 47.5909 272.2 47.2045 272.455 46.7045C272.717 46.1989 272.847 45.5966 272.847 44.8977C272.847 44.1989 272.717 43.5881 272.455 43.0653C272.194 42.5426 271.776 42.1392 271.202 41.8551C270.629 41.5653 269.87 41.4205 268.927 41.4205H265.211V57H263.097ZM271.313 49.1591L275.609 57H273.154L268.927 49.1591H271.313ZM298.216 48.2727C298.216 50.1136 297.884 51.7045 297.219 53.0455C296.554 54.3864 295.642 55.4205 294.483 56.1477C293.324 56.875 292 57.2386 290.512 57.2386C289.023 57.2386 287.699 56.875 286.54 56.1477C285.381 55.4205 284.469 54.3864 283.804 53.0455C283.14 51.7045 282.807 50.1136 282.807 48.2727C282.807 46.4318 283.14 44.8409 283.804 43.5C284.469 42.1591 285.381 41.125 286.54 40.3977C287.699 39.6705 289.023 39.3068 290.512 39.3068C292 39.3068 293.324 39.6705 294.483 40.3977C295.642 41.125 296.554 42.1591 297.219 43.5C297.884 44.8409 298.216 46.4318 298.216 48.2727ZM296.171 48.2727C296.171 46.7614 295.918 45.4858 295.412 44.446C294.912 43.4062 294.233 42.6193 293.375 42.0852C292.523 41.5511 291.569 41.2841 290.512 41.2841C289.455 41.2841 288.497 41.5511 287.64 42.0852C286.787 42.6193 286.108 43.4062 285.603 44.446C285.103 45.4858 284.853 46.7614 284.853 48.2727C284.853 49.7841 285.103 51.0597 285.603 52.0994C286.108 53.1392 286.787 53.9261 287.64 54.4602C288.497 54.9943 289.455 55.2614 290.512 55.2614C291.569 55.2614 292.523 54.9943 293.375 54.4602C294.233 53.9261 294.912 53.1392 295.412 52.0994C295.918 51.0597 296.171 49.7841 296.171 48.2727ZM318.265 39.5455H320.378V51.1023C320.378 52.2955 320.097 53.3608 319.535 54.2983C318.978 55.2301 318.191 55.9659 317.174 56.5057C316.157 57.0398 314.964 57.3068 313.594 57.3068C312.225 57.3068 311.032 57.0398 310.015 56.5057C308.998 55.9659 308.208 55.2301 307.645 54.2983C307.089 53.3608 306.81 52.2955 306.81 51.1023V39.5455H308.924V50.9318C308.924 51.7841 309.111 52.5426 309.486 53.2074C309.861 53.8665 310.395 54.3864 311.089 54.767C311.787 55.142 312.623 55.3295 313.594 55.3295C314.566 55.3295 315.401 55.142 316.1 54.767C316.799 54.3864 317.333 53.8665 317.702 53.2074C318.077 52.5426 318.265 51.7841 318.265 50.9318V39.5455ZM329.639 57V39.5455H335.537C336.906 39.5455 338.026 39.7926 338.895 40.2869C339.77 40.7756 340.418 41.4375 340.838 42.2727C341.259 43.108 341.469 44.0398 341.469 45.0682C341.469 46.0966 341.259 47.0312 340.838 47.8722C340.423 48.7131 339.781 49.3835 338.912 49.8835C338.043 50.3778 336.929 50.625 335.571 50.625H331.344V48.75H335.503C336.44 48.75 337.193 48.5881 337.761 48.2642C338.33 47.9403 338.742 47.5028 338.997 46.9517C339.259 46.3949 339.389 45.767 339.389 45.0682C339.389 44.3693 339.259 43.7443 338.997 43.1932C338.742 42.642 338.327 42.2102 337.753 41.8977C337.179 41.5795 336.418 41.4205 335.469 41.4205H331.753V57H329.639Z" fill="#F47B20"/>
<path fill-rule="evenodd" clip-rule="evenodd" d="M17.9839 29.9056C18.1162 28.2715 17.622 26.5851 16.5042 25.3417C15.387 24.0976 13.8838 23.5613 12.4333 23.7289C12.301 25.3636 12.7952 27.0486 13.913 28.2927C15.0308 29.5368 16.534 30.0732 17.9839 29.9056Z" fill="#F47B20"/>
<path fill-rule="evenodd" clip-rule="evenodd" d="M30.6592 41.1607C32.1766 40.5248 33.4203 39.2098 33.9547 37.4519C34.4892 35.6935 34.1999 33.8675 33.3123 32.4301C31.7955 33.0661 30.5512 34.3816 30.0174 36.1395C29.4829 37.8973 29.7722 39.7239 30.6592 41.1613" fill="#F47B20"/>
<path fill-rule="evenodd" clip-rule="evenodd" d="M23.0379 44.117C21.7768 45.2893 20.0988 45.8104 18.4103 45.3737C16.7212 44.9364 15.381 43.6347 14.6492 41.9475C15.9103 40.7752 17.5877 40.2541 19.2768 40.6908C20.9665 41.1282 22.3061 42.4299 23.0379 44.117Z" fill="#F47B20"/>
<path d="M4.1792 21.6797V54.0458H48.0475V21.6797L26.1139 4.77999L4.1792 21.6797ZM0.667969 56.0226V19.6049L26.1139 0L51.5598 19.6049V58H0.667969V56.0232V56.0226Z" fill="#F47B20"/>
<path d="M25.274 38.533C22.029 38.887 18.6788 38.5528 15.6606 37.351C12.8884 36.2479 10.3935 34.4199 8.49707 31.7333L11.2005 29.3118C12.665 31.3863 14.6211 32.8096 16.8097 33.6804C19.3421 34.6888 22.1813 34.966 24.9501 34.6645L25.2746 38.533H25.274Z" fill="#F47B20"/>
<path d="M24.7193 55.6054C25.6598 47.8752 24.788 40.2215 22.3993 33.2591C19.971 26.1808 15.9786 19.8243 10.7344 14.8368L13.0357 11.8495C18.7385 17.2745 23.0777 24.1774 25.7123 31.8577C28.3032 39.4117 29.249 47.7244 28.2257 56.129L24.7187 55.6054H24.7193Z" fill="#F47B20"/>
<path d="M26.3936 47.3143C29.4369 46.3945 32.0936 44.6169 34.1861 42.2879C36.3381 39.8924 37.8952 36.9112 38.6631 33.6774L42.0526 34.6994C41.1243 38.6088 39.2429 42.2117 36.6427 45.1064C34.129 47.904 30.9438 50.0371 27.2993 51.1398L26.3936 47.3149V47.3143Z" fill="#F47B20"/>
<path d="M21.9199 27.572C24.1081 25.588 25.975 23.1426 27.1522 20.4301C28.169 18.0854 28.6661 15.5304 28.3941 12.8976L31.8908 12.4731C32.2409 15.8567 31.6107 19.1192 30.3184 22.098C28.9109 25.3426 26.7123 28.2361 24.1503 30.5591L21.9199 27.5726V27.572Z" fill="#F47B20"/>
<path fill-rule="evenodd" clip-rule="evenodd" d="M23.4335 20.5806C24.4943 19.5329 25.2044 17.8895 25.2704 16.0056C25.3365 14.1217 24.7445 12.3993 23.7618 11.2258C22.7016 12.2736 21.991 13.917 21.9249 15.8002C21.8589 17.6841 22.4514 19.4065 23.4335 20.58" fill="#F47B20"/>
</svg>
